<svg xmlns="http://www.w3.org/2000/svg" xmlns:xlink="http://www.w3.org/1999/xlink" viewBox="0 0 550.15 178.71"><defs><style>.cls-1{fill:url(#Dégradé_sans_nom_46);}.cls-2{fill:url(#Dégradé_sans_nom_45);}.cls-3{font-size:170.93px;fill:#1572ff;font-family:Flix-Normal, Flix;letter-spacing:0.05em;}</style><linearGradient id="Dégradé_sans_nom_46" x1="415.06" y1="82.59" x2="550.15" y2="82.59" gradientUnits="userSpaceOnUse"><stop offset="0" stop-color="#1572ff"/><stop offset="1" stop-color="#3fff9c"/></linearGradient><linearGradient id="Dégradé_sans_nom_45" x1="448.46" y1="82.59" x2="516.76" y2="82.59" gradientUnits="userSpaceOnUse"><stop offset="0" stop-color="#fff"/><stop offset="1" stop-color="#fff"/></linearGradient></defs><g id="Calque_2" data-name="Calque 2"><g id="Calque_1-2" data-name="Calque 1"><path class="cls-1" d="M415.22,73.19a56.56,56.56,0,0,1,3.42-15.89,62.48,62.48,0,0,1,22.57-29.41,71.75,71.75,0,0,1,62.59-10c14.09,4.41,25.78,12.32,34.55,24.25a58.65,58.65,0,0,1,11.53,41.23A56.7,56.7,0,0,1,546,99.54a62.64,62.64,0,0,1-20,26.36,2.19,2.19,0,0,0-1,2c0,7.19,0,14.38,0,21.57a3.11,3.11,0,0,1-.07,1,2.2,2.2,0,0,1-.88-.38q-10.68-5.9-21.35-11.8a1.82,1.82,0,0,0-1.46-.18,72.08,72.08,0,0,1-24.6,2.19,70.28,70.28,0,0,1-14.81-2.8A66.52,66.52,0,0,1,429,115.85,59,59,0,0,1,415.22,73.19Z"/><path class="cls-2" d="M516.52,52.06c.65,5,.06,9.77-3.11,14a2.23,2.23,0,0,1-3,.92A19.87,19.87,0,0,0,501,66.4a28.65,28.65,0,0,1,9.75,3.86,63.93,63.93,0,0,1-14,6c-.79.23-1.77-.23-2.67-.4a18.71,18.71,0,0,0-9,.4,18.3,18.3,0,0,1,7.94,2.28c-2.53,1.76-4.71,3.6-7.94,3.71a17.44,17.44,0,0,0-8.82,3.22c2.65.63,5.05-1,7.83.2-5,3-8.23,7.6-14,9.14-7.77,2.08-12.79,7.84-16.86,14.47a11.55,11.55,0,0,0-1.21,2.24,3.8,3.8,0,0,1-3.47,2.67c.39-2.45,1.91-4.38,3.06-6.45,3.77-6.78,7.71-13.46,11.53-20.2A90.68,90.68,0,0,1,485,61.09a45.33,45.33,0,0,1,13.67-8c3.08-1.06,6.16-2.49,9.6-2a59.14,59.14,0,0,0-10.78,4.42,72.29,72.29,0,0,0-24.28,21.65,5.72,5.72,0,0,0-1.57,2.12,3,3,0,0,0,2.24-1.72c.1,0,.14-.07.14-.17h.1l0-.08.37-.45.28-.4a71.83,71.83,0,0,1,8.1-7.59,108.16,108.16,0,0,1,14.22-10,128.93,128.93,0,0,1,14.5-6.77c1.18-.3,2.37-.55,3.52-.92C516,50.86,516.36,51.22,516.52,52.06Z"/><text class="cls-3" transform="translate(0 142.65)">PLUM</text></g></g></svg>